<svg width="1200" height="760" viewBox="0 0 1200 760" fill="none" xmlns="http://www.w3.org/2000/svg">
  <defs>
    <radialGradient id="bg" cx="0" cy="0" r="1" gradientUnits="userSpaceOnUse" gradientTransform="translate(268 44) rotate(32.4) scale(1186.9 952.4)">
      <stop stop-color="#12264D"/>
      <stop offset="1" stop-color="#07101F"/>
    </radialGradient>
    <linearGradient id="lineMain" x1="384" y1="370" x2="782" y2="370" gradientUnits="userSpaceOnUse">
      <stop stop-color="#6CE7FF"/>
      <stop offset="1" stop-color="#74F0D7"/>
    </linearGradient>
    <linearGradient id="lineSecondary" x1="384" y1="390" x2="782" y2="390" gradientUnits="userSpaceOnUse">
      <stop stop-color="#5EB7FF"/>
      <stop offset="1" stop-color="#8BFFBF"/>
    </linearGradient>
    <linearGradient id="barFill" x1="332" y1="646" x2="478" y2="646" gradientUnits="userSpaceOnUse">
      <stop stop-color="#6CE7FF"/>
      <stop offset="1" stop-color="#8BFFBF"/>
    </linearGradient>
  </defs>

  <rect width="1200" height="760" rx="34" fill="#07101F"/>
  <rect width="1200" height="760" rx="34" fill="url(#bg)"/>
  <rect x="36" y="34" width="1128" height="692" rx="28" fill="#09152C" stroke="#FFFFFF" stroke-opacity="0.08"/>

  <rect x="64" y="72" width="220" height="616" rx="26" fill="#071122" stroke="#FFFFFF" stroke-opacity="0.06"/>
  <rect x="308" y="72" width="828" height="616" rx="26" fill="#081225" stroke="#FFFFFF" stroke-opacity="0.05"/>

  <circle cx="102" cy="108" r="13" fill="#6CE7FF" fill-opacity="0.18"/>
  <circle cx="102" cy="108" r="5" fill="#6CE7FF"/>
  <text x="126" y="104" fill="#FFFFFF" font-size="20" font-weight="700" font-family="Sora, Inter, Arial, sans-serif" dominant-baseline="middle">AnySale OS</text>
  <text x="126" y="124" fill="#8FA5C9" font-size="11" letter-spacing="0.22em" font-family="'IBM Plex Mono', monospace" dominant-baseline="middle">CENTRAL COMERCIAL</text>

  <rect x="84" y="156" width="180" height="52" rx="18" fill="#0E2142"/>
  <circle cx="110" cy="182" r="8" fill="#6CE7FF"/>
  <text x="128" y="182" fill="#FFFFFF" font-size="14" font-weight="600" font-family="Manrope, Inter, Arial, sans-serif" dominant-baseline="middle">Vis&#227;o geral</text>

  <rect x="84" y="220" width="180" height="44" rx="16" fill="#0A162C"/>
  <circle cx="110" cy="242" r="7" fill="#FFFFFF" fill-opacity="0.16"/>
  <text x="128" y="242" fill="#9DB0CF" font-size="13" font-weight="500" font-family="Manrope, Inter, Arial, sans-serif" dominant-baseline="middle">Leads e canais</text>

  <rect x="84" y="276" width="180" height="44" rx="16" fill="#0A162C"/>
  <circle cx="110" cy="298" r="7" fill="#FFFFFF" fill-opacity="0.16"/>
  <text x="128" y="298" fill="#9DB0CF" font-size="13" font-weight="500" font-family="Manrope, Inter, Arial, sans-serif" dominant-baseline="middle">Pipeline</text>

  <rect x="84" y="332" width="180" height="44" rx="16" fill="#0A162C"/>
  <circle cx="110" cy="354" r="7" fill="#FFFFFF" fill-opacity="0.16"/>
  <text x="128" y="354" fill="#9DB0CF" font-size="13" font-weight="500" font-family="Manrope, Inter, Arial, sans-serif" dominant-baseline="middle">IA vendedora</text>

  <rect x="84" y="388" width="180" height="44" rx="16" fill="#0A162C"/>
  <circle cx="110" cy="410" r="7" fill="#FFFFFF" fill-opacity="0.16"/>
  <text x="128" y="410" fill="#9DB0CF" font-size="13" font-weight="500" font-family="Manrope, Inter, Arial, sans-serif" dominant-baseline="middle">Agenda e handoff</text>

  <rect x="84" y="468" width="180" height="188" rx="22" fill="#0A162C" stroke="#FFFFFF" stroke-opacity="0.05"/>
  <text x="104" y="496" fill="#8FA5C9" font-size="10" letter-spacing="0.2em" font-family="'IBM Plex Mono', monospace">IA VENDEDORA ATIVA</text>
  <rect x="104" y="514" width="140" height="54" rx="18" fill="#10284B"/>
  <text x="122" y="538" fill="#6CE7FF" font-size="24" font-weight="700" font-family="Sora, Inter, Arial, sans-serif" dominant-baseline="middle">124</text>
  <text x="122" y="556" fill="#B2C3DF" font-size="12" font-family="Manrope, Inter, Arial, sans-serif" dominant-baseline="middle">conversas em andamento</text>
  <rect x="104" y="582" width="140" height="54" rx="18" fill="#0F2144"/>
  <text x="122" y="606" fill="#8BFFBF" font-size="24" font-weight="700" font-family="Sora, Inter, Arial, sans-serif" dominant-baseline="middle">18</text>
  <text x="122" y="624" fill="#B2C3DF" font-size="12" font-family="Manrope, Inter, Arial, sans-serif" dominant-baseline="middle">leads prontos para vendedor</text>

  <text x="332" y="104" fill="#6CE7FF" fill-opacity="0.82" font-size="11" letter-spacing="0.26em" font-family="'IBM Plex Mono', monospace">REVENUE COMMAND CENTER</text>
  <text x="332" y="140" fill="#FFFFFF" font-size="30" font-weight="700" font-family="Sora, Inter, Arial, sans-serif">Opera&#231;&#227;o comercial em tempo real</text>
  <text x="332" y="164" fill="#8FA5C9" font-size="13" font-family="Manrope, Inter, Arial, sans-serif">WhatsApp, Instagram, CRM e agenda sincronizados em uma &#250;nica vis&#227;o.</text>

  <rect x="868" y="94" width="112" height="34" rx="17" fill="#0E2142"/>
  <circle cx="892" cy="111" r="5" fill="#8BFFBF"/>
  <text x="944" y="111" fill="#E4F6EF" font-size="12" font-weight="600" font-family="Manrope, Inter, Arial, sans-serif" text-anchor="middle" dominant-baseline="middle">12 equipes online</text>

  <rect x="992" y="94" width="74" height="34" rx="17" fill="#0A162C"/>
  <text x="1029" y="111" fill="#9DB0CF" font-size="12" font-weight="600" font-family="Manrope, Inter, Arial, sans-serif" text-anchor="middle" dominant-baseline="middle">CRM sync</text>

  <rect x="1078" y="94" width="44" height="34" rx="17" fill="#0A162C"/>
  <text x="1100" y="111" fill="#9DB0CF" font-size="12" font-weight="600" font-family="Manrope, Inter, Arial, sans-serif" text-anchor="middle" dominant-baseline="middle">9:41</text>

  <rect x="308" y="188" width="195" height="82" rx="22" fill="#0E1F3E" stroke="#FFFFFF" stroke-opacity="0.06"/>
  <rect x="519" y="188" width="195" height="82" rx="22" fill="#0E1F3E" stroke="#FFFFFF" stroke-opacity="0.06"/>
  <rect x="730" y="188" width="195" height="82" rx="22" fill="#0E1F3E" stroke="#FFFFFF" stroke-opacity="0.06"/>
  <rect x="941" y="188" width="195" height="82" rx="22" fill="#0E1F3E" stroke="#FFFFFF" stroke-opacity="0.06"/>

  <text x="332" y="214" fill="#8FA5C9" font-size="10" letter-spacing="0.18em" font-family="'IBM Plex Mono', monospace">NOVOS LEADS</text>
  <text x="332" y="246" fill="#FFFFFF" font-size="34" font-weight="700" font-family="Sora, Inter, Arial, sans-serif">182</text>
  <text x="332" y="264" fill="#AFC0DA" font-size="12" font-family="Manrope, Inter, Arial, sans-serif">&#250;ltimas 24 horas</text>
  <rect x="438" y="204" width="48" height="22" rx="11" fill="#10284B"/>
  <text x="462" y="215" fill="#6CE7FF" font-size="11" font-weight="700" font-family="Manrope, Inter, Arial, sans-serif" text-anchor="middle" dominant-baseline="middle">+14%</text>

  <text x="543" y="214" fill="#8FA5C9" font-size="10" letter-spacing="0.18em" font-family="'IBM Plex Mono', monospace">RESPOSTA M&#201;DIA</text>
  <text x="543" y="246" fill="#FFFFFF" font-size="34" font-weight="700" font-family="Sora, Inter, Arial, sans-serif">7s</text>
  <text x="543" y="264" fill="#AFC0DA" font-size="12" font-family="Manrope, Inter, Arial, sans-serif">primeiro atendimento</text>
  <rect x="649" y="204" width="48" height="22" rx="11" fill="#132138"/>
  <text x="673" y="215" fill="#8BFFBF" font-size="11" font-weight="700" font-family="Manrope, Inter, Arial, sans-serif" text-anchor="middle" dominant-baseline="middle">-72%</text>

  <text x="754" y="214" fill="#8FA5C9" font-size="10" letter-spacing="0.18em" font-family="'IBM Plex Mono', monospace">REUNI&#213;ES</text>
  <text x="754" y="246" fill="#FFFFFF" font-size="34" font-weight="700" font-family="Sora, Inter, Arial, sans-serif">34</text>
  <text x="754" y="264" fill="#AFC0DA" font-size="12" font-family="Manrope, Inter, Arial, sans-serif">agendadas hoje</text>
  <rect x="860" y="204" width="44" height="22" rx="11" fill="#10284B"/>
  <text x="882" y="215" fill="#6CE7FF" font-size="11" font-weight="700" font-family="Manrope, Inter, Arial, sans-serif" text-anchor="middle" dominant-baseline="middle">+9%</text>

  <text x="965" y="214" fill="#8FA5C9" font-size="10" letter-spacing="0.18em" font-family="'IBM Plex Mono', monospace">CONVERS&#195;O</text>
  <text x="965" y="246" fill="#FFFFFF" font-size="34" font-weight="700" font-family="Sora, Inter, Arial, sans-serif">38%</text>
  <text x="965" y="264" fill="#AFC0DA" font-size="12" font-family="Manrope, Inter, Arial, sans-serif">ganho m&#233;dio com IA</text>
  <rect x="1074" y="204" width="44" height="22" rx="11" fill="#132138"/>
  <text x="1096" y="215" fill="#8BFFBF" font-size="11" font-weight="700" font-family="Manrope, Inter, Arial, sans-serif" text-anchor="middle" dominant-baseline="middle">+6%</text>

  <rect x="308" y="286" width="520" height="244" rx="24" fill="#0A142A" stroke="#FFFFFF" stroke-opacity="0.06"/>
  <text x="332" y="318" fill="#8FA5C9" font-size="10" letter-spacing="0.2em" font-family="'IBM Plex Mono', monospace">RECEITA EM ANDAMENTO</text>
  <text x="332" y="346" fill="#FFFFFF" font-size="20" font-weight="700" font-family="Sora, Inter, Arial, sans-serif">Leads qualificados e previs&#227;o comercial</text>
  <circle cx="640" cy="340" r="5" fill="#6CE7FF"/>
  <text x="652" y="340" fill="#AFC0DA" font-size="12" font-family="Manrope, Inter, Arial, sans-serif" dominant-baseline="middle">pipeline atual</text>
  <circle cx="748" cy="340" r="5" fill="#8BFFBF"/>
  <text x="760" y="340" fill="#AFC0DA" font-size="12" font-family="Manrope, Inter, Arial, sans-serif" dominant-baseline="middle">meta prevista</text>

  <rect x="332" y="366" width="472" height="134" rx="20" fill="#09172F" stroke="#FFFFFF" stroke-opacity="0.04"/>
  <path d="M364 392H780" stroke="#FFFFFF" stroke-opacity="0.06"/>
  <path d="M364 424H780" stroke="#FFFFFF" stroke-opacity="0.06"/>
  <path d="M364 456H780" stroke="#FFFFFF" stroke-opacity="0.06"/>
  <path d="M364 488H780" stroke="#FFFFFF" stroke-opacity="0.06"/>
  <path d="M384 470C420 430 472 448 522 404C570 362 624 382 676 332C709 300 739 304 782 318" stroke="url(#lineMain)" stroke-width="6" stroke-linecap="round"/>
  <path d="M384 452C430 425 458 432 504 418C568 398 618 390 672 350C705 326 741 332 782 346" stroke="url(#lineSecondary)" stroke-width="4" stroke-linecap="round" stroke-opacity="0.88"/>
  <circle cx="782" cy="318" r="8" fill="#6CE7FF"/>
  <circle cx="782" cy="346" r="6" fill="#8BFFBF"/>
  <text x="364" y="520" fill="#7E95BA" font-size="11" font-family="Manrope, Inter, Arial, sans-serif">Seg</text>
  <text x="446" y="520" fill="#7E95BA" font-size="11" font-family="Manrope, Inter, Arial, sans-serif">Ter</text>
  <text x="528" y="520" fill="#7E95BA" font-size="11" font-family="Manrope, Inter, Arial, sans-serif">Qua</text>
  <text x="610" y="520" fill="#7E95BA" font-size="11" font-family="Manrope, Inter, Arial, sans-serif">Qui</text>
  <text x="692" y="520" fill="#7E95BA" font-size="11" font-family="Manrope, Inter, Arial, sans-serif">Sex</text>
  <text x="770" y="520" fill="#7E95BA" font-size="11" font-family="Manrope, Inter, Arial, sans-serif">S&#225;b</text>

  <rect x="844" y="286" width="292" height="244" rx="24" fill="#0A142A" stroke="#FFFFFF" stroke-opacity="0.06"/>
  <text x="868" y="318" fill="#8FA5C9" font-size="10" letter-spacing="0.2em" font-family="'IBM Plex Mono', monospace">FILA PRIORIT&#193;RIA</text>
  <text x="868" y="346" fill="#FFFFFF" font-size="20" font-weight="700" font-family="Sora, Inter, Arial, sans-serif">Quem o time deve atacar agora</text>

  <rect x="868" y="366" width="244" height="36" rx="18" fill="#10284B"/>
  <circle cx="888" cy="384" r="5" fill="#8BFFBF"/>
  <text x="904" y="384" fill="#FFFFFF" font-size="13" font-weight="700" font-family="Manrope, Inter, Arial, sans-serif" dominant-baseline="middle">Cl&#237;nica Vitta</text>
  <text x="1004" y="384" fill="#A7B8D4" font-size="12" font-family="Manrope, Inter, Arial, sans-serif" dominant-baseline="middle">WhatsApp</text>
  <rect x="1068" y="373" width="30" height="22" rx="11" fill="#132138"/>
  <text x="1083" y="384" fill="#8BFFBF" font-size="11" font-weight="700" font-family="Manrope, Inter, Arial, sans-serif" text-anchor="middle" dominant-baseline="middle">92</text>

  <rect x="868" y="412" width="244" height="36" rx="18" fill="#0F2144"/>
  <circle cx="888" cy="430" r="5" fill="#6CE7FF"/>
  <text x="904" y="430" fill="#FFFFFF" font-size="13" font-weight="700" font-family="Manrope, Inter, Arial, sans-serif" dominant-baseline="middle">Aurora Homes</text>
  <text x="1004" y="430" fill="#A7B8D4" font-size="12" font-family="Manrope, Inter, Arial, sans-serif" dominant-baseline="middle">Instagram</text>
  <rect x="1068" y="419" width="30" height="22" rx="11" fill="#10284B"/>
  <text x="1083" y="430" fill="#6CE7FF" font-size="11" font-weight="700" font-family="Manrope, Inter, Arial, sans-serif" text-anchor="middle" dominant-baseline="middle">88</text>

  <rect x="868" y="458" width="244" height="36" rx="18" fill="#0F2144"/>
  <circle cx="888" cy="476" r="5" fill="#8BFFBF"/>
  <text x="904" y="476" fill="#FFFFFF" font-size="13" font-weight="700" font-family="Manrope, Inter, Arial, sans-serif" dominant-baseline="middle">Nexa Motors</text>
  <text x="1004" y="476" fill="#A7B8D4" font-size="12" font-family="Manrope, Inter, Arial, sans-serif" dominant-baseline="middle">Site</text>
  <rect x="1068" y="465" width="30" height="22" rx="11" fill="#132138"/>
  <text x="1083" y="476" fill="#8BFFBF" font-size="11" font-weight="700" font-family="Manrope, Inter, Arial, sans-serif" text-anchor="middle" dominant-baseline="middle">81</text>

  <text x="868" y="516" fill="#6CE7FF" font-size="12" font-weight="700" font-family="Manrope, Inter, Arial, sans-serif">18 leads aguardando vendedor</text>

  <rect x="308" y="548" width="252" height="136" rx="22" fill="#0A142A" stroke="#FFFFFF" stroke-opacity="0.06"/>
  <text x="332" y="578" fill="#8FA5C9" font-size="10" letter-spacing="0.2em" font-family="'IBM Plex Mono', monospace">CANAIS ATIVOS</text>
  <text x="332" y="604" fill="#FFFFFF" font-size="18" font-weight="700" font-family="Sora, Inter, Arial, sans-serif">Distribui&#231;&#227;o do volume</text>
  <text x="332" y="628" fill="#AFC0DA" font-size="12" font-family="Manrope, Inter, Arial, sans-serif">WhatsApp lidera, Instagram acelera e CRM recebe tudo sincronizado.</text>
  <rect x="332" y="646" width="208" height="10" rx="5" fill="#FFFFFF" fill-opacity="0.08"/>
  <rect x="332" y="646" width="146" height="10" rx="5" fill="url(#barFill)"/>
  <text x="332" y="672" fill="#B9C8DF" font-size="12" font-family="Manrope, Inter, Arial, sans-serif">WhatsApp 54% &#8226; Instagram 23% &#8226; Site 14% &#8226; CRM 9%</text>

  <rect x="576" y="548" width="264" height="136" rx="22" fill="#0A142A" stroke="#FFFFFF" stroke-opacity="0.06"/>
  <text x="600" y="578" fill="#8FA5C9" font-size="10" letter-spacing="0.2em" font-family="'IBM Plex Mono', monospace">PIPELINE</text>
  <text x="600" y="604" fill="#FFFFFF" font-size="18" font-weight="700" font-family="Sora, Inter, Arial, sans-serif">Etapas com prioriza&#231;&#227;o</text>
  <rect x="600" y="620" width="48" height="40" rx="15" fill="#10284B"/>
  <rect x="660" y="612" width="48" height="48" rx="16" fill="#112C52"/>
  <rect x="720" y="604" width="48" height="56" rx="16" fill="#6CE7FF" fill-opacity="0.88"/>
  <rect x="780" y="626" width="36" height="34" rx="14" fill="#8BFFBF" fill-opacity="0.92"/>
  <text x="600" y="672" fill="#B9C8DF" font-size="12" font-family="Manrope, Inter, Arial, sans-serif">Novo 48 &#8226; Qualificado 31 &#8226; Proposta 19 &#8226; Demo 12</text>

  <rect x="856" y="548" width="280" height="136" rx="22" fill="#0A142A" stroke="#FFFFFF" stroke-opacity="0.06"/>
  <text x="880" y="578" fill="#8FA5C9" font-size="10" letter-spacing="0.2em" font-family="'IBM Plex Mono', monospace">PR&#211;XIMAS A&#199;&#213;ES</text>
  <text x="880" y="604" fill="#FFFFFF" font-size="18" font-weight="700" font-family="Sora, Inter, Arial, sans-serif">Agenda comercial pronta</text>
  <text x="880" y="628" fill="#B9C8DF" font-size="12" font-family="Manrope, Inter, Arial, sans-serif">15:30 Demo Cl&#237;nica Vitta</text>
  <text x="880" y="648" fill="#B9C8DF" font-size="12" font-family="Manrope, Inter, Arial, sans-serif">16:10 Retomar Aurora Homes</text>
  <text x="880" y="668" fill="#B9C8DF" font-size="12" font-family="Manrope, Inter, Arial, sans-serif">17:00 Enviar proposta Nexa Motors</text>
</svg>
