<svg width="1200" height="760" viewBox="0 0 1200 760" fill="none" xmlns="http://www.w3.org/2000/svg">
  <defs>
    <radialGradient id="bg" cx="0" cy="0" r="1" gradientUnits="userSpaceOnUse" gradientTransform="translate(286 30) rotate(31.8) scale(1230 990)">
      <stop stop-color="#13284F"/>
      <stop offset="1" stop-color="#07101F"/>
    </radialGradient>
    <linearGradient id="mainLine" x1="350" y1="394" x2="734" y2="394" gradientUnits="userSpaceOnUse">
      <stop stop-color="#6CE7FF"/>
      <stop offset="1" stop-color="#74F0D7"/>
    </linearGradient>
    <linearGradient id="secondaryLine" x1="350" y1="416" x2="734" y2="416" gradientUnits="userSpaceOnUse">
      <stop stop-color="#4DB9FF"/>
      <stop offset="1" stop-color="#8BFFBF"/>
    </linearGradient>
    <linearGradient id="channelBar" x1="334" y1="640" x2="500" y2="640" gradientUnits="userSpaceOnUse">
      <stop stop-color="#6CE7FF"/>
      <stop offset="1" stop-color="#8BFFBF"/>
    </linearGradient>
  </defs>

  <rect width="1200" height="760" rx="34" fill="#07101F"/>
  <rect width="1200" height="760" rx="34" fill="url(#bg)"/>
  <rect x="32" y="30" width="1136" height="700" rx="30" fill="#09152C" stroke="#FFFFFF" stroke-opacity="0.08"/>

  <rect x="60" y="58" width="222" height="644" rx="28" fill="#081122" stroke="#FFFFFF" stroke-opacity="0.06"/>
  <rect x="306" y="58" width="834" height="644" rx="28" fill="#091327" stroke="#FFFFFF" stroke-opacity="0.05"/>

  <circle cx="102" cy="100" r="14" fill="#6CE7FF" fill-opacity="0.18"/>
  <circle cx="102" cy="100" r="5" fill="#6CE7FF"/>
  <text x="128" y="96" fill="#FFFFFF" font-size="21" font-weight="700" font-family="Sora, Inter, Arial, sans-serif" dominant-baseline="middle">AnySale OS</text>
  <text x="128" y="118" fill="#8FA5C9" font-size="11" letter-spacing="0.22em" font-family="'IBM Plex Mono', monospace" dominant-baseline="middle">CENTRAL COMERCIAL</text>

  <rect x="82" y="150" width="178" height="54" rx="18" fill="#10264A"/>
  <circle cx="108" cy="177" r="8" fill="#6CE7FF"/>
  <text x="126" y="177" fill="#FFFFFF" font-size="14" font-weight="600" font-family="Manrope, Inter, Arial, sans-serif" dominant-baseline="middle">Vis&#227;o geral</text>

  <rect x="82" y="220" width="178" height="42" rx="16" fill="#0B162D"/>
  <circle cx="108" cy="241" r="6" fill="#FFFFFF" fill-opacity="0.16"/>
  <text x="126" y="241" fill="#9DB0CF" font-size="13" font-weight="500" font-family="Manrope, Inter, Arial, sans-serif" dominant-baseline="middle">Leads e canais</text>

  <rect x="82" y="274" width="178" height="42" rx="16" fill="#0B162D"/>
  <circle cx="108" cy="295" r="6" fill="#FFFFFF" fill-opacity="0.16"/>
  <text x="126" y="295" fill="#9DB0CF" font-size="13" font-weight="500" font-family="Manrope, Inter, Arial, sans-serif" dominant-baseline="middle">Pipeline</text>

  <rect x="82" y="328" width="178" height="42" rx="16" fill="#0B162D"/>
  <circle cx="108" cy="349" r="6" fill="#FFFFFF" fill-opacity="0.16"/>
  <text x="126" y="349" fill="#9DB0CF" font-size="13" font-weight="500" font-family="Manrope, Inter, Arial, sans-serif" dominant-baseline="middle">IA vendedora</text>

  <rect x="82" y="382" width="178" height="42" rx="16" fill="#0B162D"/>
  <circle cx="108" cy="403" r="6" fill="#FFFFFF" fill-opacity="0.16"/>
  <text x="126" y="403" fill="#9DB0CF" font-size="13" font-weight="500" font-family="Manrope, Inter, Arial, sans-serif" dominant-baseline="middle">Agenda e handoff</text>

  <rect x="82" y="470" width="178" height="188" rx="24" fill="#0A162C" stroke="#FFFFFF" stroke-opacity="0.05"/>
  <text x="104" y="500" fill="#8FA5C9" font-size="10" letter-spacing="0.2em" font-family="'IBM Plex Mono', monospace">IA VENDEDORA ATIVA</text>
  <rect x="104" y="520" width="134" height="56" rx="18" fill="#0F284B"/>
  <text x="122" y="548" fill="#6CE7FF" font-size="26" font-weight="700" font-family="Sora, Inter, Arial, sans-serif" dominant-baseline="middle">124</text>
  <text x="122" y="566" fill="#B3C4DF" font-size="12" font-family="Manrope, Inter, Arial, sans-serif" dominant-baseline="middle">conversas em andamento</text>
  <rect x="104" y="590" width="134" height="52" rx="18" fill="#101F3E"/>
  <text x="122" y="616" fill="#8BFFBF" font-size="24" font-weight="700" font-family="Sora, Inter, Arial, sans-serif" dominant-baseline="middle">18</text>
  <text x="122" y="634" fill="#B3C4DF" font-size="12" font-family="Manrope, Inter, Arial, sans-serif" dominant-baseline="middle">prontos para vendedor</text>

  <text x="334" y="96" fill="#6CE7FF" fill-opacity="0.84" font-size="11" letter-spacing="0.26em" font-family="'IBM Plex Mono', monospace">REVENUE COMMAND CENTER</text>
  <text x="334" y="134" fill="#FFFFFF" font-size="36" font-weight="700" font-family="Sora, Inter, Arial, sans-serif">Opera&#231;&#227;o comercial em tempo real</text>
  <text x="334" y="162" fill="#8FA5C9" font-size="15" font-family="Manrope, Inter, Arial, sans-serif">WhatsApp, Instagram, CRM e agenda sincronizados em uma &#250;nica vis&#227;o.</text>

  <rect x="882" y="90" width="122" height="36" rx="18" fill="#10264A"/>
  <circle cx="906" cy="108" r="5" fill="#8BFFBF"/>
  <text x="943" y="108" fill="#E4F6EF" font-size="12" font-weight="600" font-family="Manrope, Inter, Arial, sans-serif" dominant-baseline="middle">12 equipes online</text>

  <rect x="1018" y="90" width="74" height="36" rx="18" fill="#0B162D"/>
  <text x="1055" y="108" fill="#9DB0CF" font-size="12" font-weight="600" font-family="Manrope, Inter, Arial, sans-serif" text-anchor="middle" dominant-baseline="middle">CRM sync</text>

  <rect x="1104" y="90" width="24" height="36" rx="12" fill="#0B162D"/>
  <text x="1116" y="108" fill="#9DB0CF" font-size="12" font-weight="600" font-family="Manrope, Inter, Arial, sans-serif" text-anchor="middle" dominant-baseline="middle">9:41</text>

  <rect x="334" y="198" width="176" height="96" rx="24" fill="#0E1F3E" stroke="#FFFFFF" stroke-opacity="0.06"/>
  <rect x="526" y="198" width="176" height="96" rx="24" fill="#0E1F3E" stroke="#FFFFFF" stroke-opacity="0.06"/>
  <rect x="718" y="198" width="176" height="96" rx="24" fill="#0E1F3E" stroke="#FFFFFF" stroke-opacity="0.06"/>
  <rect x="910" y="198" width="176" height="96" rx="24" fill="#0E1F3E" stroke="#FFFFFF" stroke-opacity="0.06"/>

  <text x="358" y="226" fill="#8FA5C9" font-size="10" letter-spacing="0.18em" font-family="'IBM Plex Mono', monospace">NOVOS LEADS</text>
  <text x="358" y="264" fill="#FFFFFF" font-size="38" font-weight="700" font-family="Sora, Inter, Arial, sans-serif">182</text>
  <text x="358" y="284" fill="#AFC0DA" font-size="13" font-family="Manrope, Inter, Arial, sans-serif">&#250;ltimas 24 horas</text>
  <rect x="446" y="216" width="48" height="22" rx="11" fill="#10284B"/>
  <text x="470" y="227" fill="#6CE7FF" font-size="11" font-weight="700" font-family="Manrope, Inter, Arial, sans-serif" text-anchor="middle" dominant-baseline="middle">+14%</text>

  <text x="550" y="226" fill="#8FA5C9" font-size="10" letter-spacing="0.18em" font-family="'IBM Plex Mono', monospace">RESPOSTA M&#201;DIA</text>
  <text x="550" y="264" fill="#FFFFFF" font-size="38" font-weight="700" font-family="Sora, Inter, Arial, sans-serif">7s</text>
  <text x="550" y="284" fill="#AFC0DA" font-size="13" font-family="Manrope, Inter, Arial, sans-serif">primeiro atendimento</text>
  <rect x="638" y="216" width="48" height="22" rx="11" fill="#132138"/>
  <text x="662" y="227" fill="#8BFFBF" font-size="11" font-weight="700" font-family="Manrope, Inter, Arial, sans-serif" text-anchor="middle" dominant-baseline="middle">-72%</text>

  <text x="742" y="226" fill="#8FA5C9" font-size="10" letter-spacing="0.18em" font-family="'IBM Plex Mono', monospace">REUNI&#213;ES</text>
  <text x="742" y="264" fill="#FFFFFF" font-size="38" font-weight="700" font-family="Sora, Inter, Arial, sans-serif">34</text>
  <text x="742" y="284" fill="#AFC0DA" font-size="13" font-family="Manrope, Inter, Arial, sans-serif">agendadas hoje</text>
  <rect x="830" y="216" width="44" height="22" rx="11" fill="#10284B"/>
  <text x="852" y="227" fill="#6CE7FF" font-size="11" font-weight="700" font-family="Manrope, Inter, Arial, sans-serif" text-anchor="middle" dominant-baseline="middle">+9%</text>

  <text x="934" y="226" fill="#8FA5C9" font-size="10" letter-spacing="0.18em" font-family="'IBM Plex Mono', monospace">CONVERS&#195;O</text>
  <text x="934" y="264" fill="#FFFFFF" font-size="38" font-weight="700" font-family="Sora, Inter, Arial, sans-serif">38%</text>
  <text x="934" y="284" fill="#AFC0DA" font-size="13" font-family="Manrope, Inter, Arial, sans-serif">ganho m&#233;dio com IA</text>
  <rect x="1022" y="216" width="44" height="22" rx="11" fill="#132138"/>
  <text x="1044" y="227" fill="#8BFFBF" font-size="11" font-weight="700" font-family="Manrope, Inter, Arial, sans-serif" text-anchor="middle" dominant-baseline="middle">+6%</text>

  <rect x="334" y="314" width="494" height="234" rx="24" fill="#0A142A" stroke="#FFFFFF" stroke-opacity="0.06"/>
  <text x="358" y="346" fill="#8FA5C9" font-size="10" letter-spacing="0.2em" font-family="'IBM Plex Mono', monospace">RECEITA EM MOVIMENTO</text>
  <text x="358" y="378" fill="#FFFFFF" font-size="24" font-weight="700" font-family="Sora, Inter, Arial, sans-serif">Leads qualificados e previs&#227;o comercial</text>
  <circle cx="610" cy="372" r="5" fill="#6CE7FF"/>
  <text x="622" y="372" fill="#AFC0DA" font-size="12" font-family="Manrope, Inter, Arial, sans-serif" dominant-baseline="middle">pipeline atual</text>
  <circle cx="724" cy="372" r="5" fill="#8BFFBF"/>
  <text x="736" y="372" fill="#AFC0DA" font-size="12" font-family="Manrope, Inter, Arial, sans-serif" dominant-baseline="middle">meta prevista</text>

  <rect x="358" y="398" width="446" height="124" rx="20" fill="#09172F" stroke="#FFFFFF" stroke-opacity="0.04"/>
  <path d="M380 422H780" stroke="#FFFFFF" stroke-opacity="0.06"/>
  <path d="M380 450H780" stroke="#FFFFFF" stroke-opacity="0.06"/>
  <path d="M380 478H780" stroke="#FFFFFF" stroke-opacity="0.06"/>
  <path d="M380 506H780" stroke="#FFFFFF" stroke-opacity="0.06"/>
  <path d="M404 486C446 446 490 458 536 416C584 374 628 388 676 346C700 326 722 326 734 330" stroke="url(#mainLine)" stroke-width="6" stroke-linecap="round"/>
  <path d="M404 470C450 446 476 446 518 434C576 416 620 408 662 376C690 354 714 354 734 358" stroke="url(#secondaryLine)" stroke-width="4" stroke-linecap="round" stroke-opacity="0.9"/>
  <circle cx="734" cy="330" r="8" fill="#6CE7FF"/>
  <circle cx="734" cy="358" r="6" fill="#8BFFBF"/>
  <text x="380" y="536" fill="#7E95BA" font-size="11" font-family="Manrope, Inter, Arial, sans-serif">Seg</text>
  <text x="456" y="536" fill="#7E95BA" font-size="11" font-family="Manrope, Inter, Arial, sans-serif">Ter</text>
  <text x="532" y="536" fill="#7E95BA" font-size="11" font-family="Manrope, Inter, Arial, sans-serif">Qua</text>
  <text x="608" y="536" fill="#7E95BA" font-size="11" font-family="Manrope, Inter, Arial, sans-serif">Qui</text>
  <text x="684" y="536" fill="#7E95BA" font-size="11" font-family="Manrope, Inter, Arial, sans-serif">Sex</text>
  <text x="754" y="536" fill="#7E95BA" font-size="11" font-family="Manrope, Inter, Arial, sans-serif">S&#225;b</text>

  <rect x="852" y="314" width="258" height="234" rx="24" fill="#0A142A" stroke="#FFFFFF" stroke-opacity="0.06"/>
  <text x="876" y="346" fill="#8FA5C9" font-size="10" letter-spacing="0.2em" font-family="'IBM Plex Mono', monospace">FILA PRIORIT&#193;RIA</text>
  <text x="876" y="378" fill="#FFFFFF" font-size="24" font-weight="700" font-family="Sora, Inter, Arial, sans-serif">Quem o time ataca agora</text>

  <rect x="876" y="404" width="210" height="40" rx="20" fill="#10284B"/>
  <circle cx="898" cy="424" r="5" fill="#8BFFBF"/>
  <text x="914" y="424" fill="#FFFFFF" font-size="13" font-weight="700" font-family="Manrope, Inter, Arial, sans-serif" dominant-baseline="middle">Cl&#237;nica Vitta</text>
  <text x="1000" y="424" fill="#A7B8D4" font-size="12" font-family="Manrope, Inter, Arial, sans-serif" dominant-baseline="middle">WhatsApp</text>
  <rect x="1046" y="413" width="28" height="22" rx="11" fill="#132138"/>
  <text x="1060" y="424" fill="#8BFFBF" font-size="11" font-weight="700" font-family="Manrope, Inter, Arial, sans-serif" text-anchor="middle" dominant-baseline="middle">92</text>

  <rect x="876" y="454" width="210" height="40" rx="20" fill="#0F2144"/>
  <circle cx="898" cy="474" r="5" fill="#6CE7FF"/>
  <text x="914" y="474" fill="#FFFFFF" font-size="13" font-weight="700" font-family="Manrope, Inter, Arial, sans-serif" dominant-baseline="middle">Aurora Homes</text>
  <text x="1000" y="474" fill="#A7B8D4" font-size="12" font-family="Manrope, Inter, Arial, sans-serif" dominant-baseline="middle">Instagram</text>
  <rect x="1046" y="463" width="28" height="22" rx="11" fill="#10284B"/>
  <text x="1060" y="474" fill="#6CE7FF" font-size="11" font-weight="700" font-family="Manrope, Inter, Arial, sans-serif" text-anchor="middle" dominant-baseline="middle">88</text>

  <rect x="876" y="504" width="210" height="40" rx="20" fill="#0F2144"/>
  <circle cx="898" cy="524" r="5" fill="#8BFFBF"/>
  <text x="914" y="524" fill="#FFFFFF" font-size="13" font-weight="700" font-family="Manrope, Inter, Arial, sans-serif" dominant-baseline="middle">Nexa Motors</text>
  <text x="1000" y="524" fill="#A7B8D4" font-size="12" font-family="Manrope, Inter, Arial, sans-serif" dominant-baseline="middle">Site</text>
  <rect x="1046" y="513" width="28" height="22" rx="11" fill="#132138"/>
  <text x="1060" y="524" fill="#8BFFBF" font-size="11" font-weight="700" font-family="Manrope, Inter, Arial, sans-serif" text-anchor="middle" dominant-baseline="middle">81</text>

  <text x="876" y="578" fill="#6CE7FF" font-size="13" font-weight="700" font-family="Manrope, Inter, Arial, sans-serif">18 leads aguardando vendedor</text>

  <rect x="334" y="572" width="230" height="112" rx="22" fill="#0A142A" stroke="#FFFFFF" stroke-opacity="0.06"/>
  <text x="358" y="600" fill="#8FA5C9" font-size="10" letter-spacing="0.2em" font-family="'IBM Plex Mono', monospace">CANAIS ATIVOS</text>
  <text x="358" y="626" fill="#FFFFFF" font-size="19" font-weight="700" font-family="Sora, Inter, Arial, sans-serif">Distribui&#231;&#227;o do volume</text>
  <rect x="358" y="640" width="182" height="10" rx="5" fill="#FFFFFF" fill-opacity="0.08"/>
  <rect x="358" y="640" width="130" height="10" rx="5" fill="url(#channelBar)"/>
  <text x="358" y="666" fill="#B9C8DF" font-size="12" font-family="Manrope, Inter, Arial, sans-serif">WhatsApp 54% &#8226; Instagram 23%</text>

  <rect x="580" y="572" width="250" height="112" rx="22" fill="#0A142A" stroke="#FFFFFF" stroke-opacity="0.06"/>
  <text x="604" y="600" fill="#8FA5C9" font-size="10" letter-spacing="0.2em" font-family="'IBM Plex Mono', monospace">PIPELINE</text>
  <text x="604" y="626" fill="#FFFFFF" font-size="19" font-weight="700" font-family="Sora, Inter, Arial, sans-serif">Etapas com prioridade</text>
  <rect x="604" y="642" width="44" height="28" rx="14" fill="#10284B"/>
  <rect x="658" y="636" width="44" height="34" rx="16" fill="#112C52"/>
  <rect x="712" y="630" width="44" height="40" rx="16" fill="#6CE7FF" fill-opacity="0.88"/>
  <rect x="766" y="646" width="32" height="24" rx="12" fill="#8BFFBF" fill-opacity="0.92"/>

  <rect x="846" y="572" width="264" height="112" rx="22" fill="#0A142A" stroke="#FFFFFF" stroke-opacity="0.06"/>
  <text x="870" y="600" fill="#8FA5C9" font-size="10" letter-spacing="0.2em" font-family="'IBM Plex Mono', monospace">PR&#211;XIMAS A&#199;&#213;ES</text>
  <text x="870" y="626" fill="#FFFFFF" font-size="19" font-weight="700" font-family="Sora, Inter, Arial, sans-serif">Agenda comercial pronta</text>
  <text x="870" y="648" fill="#B9C8DF" font-size="12" font-family="Manrope, Inter, Arial, sans-serif">15:30 Demo Cl&#237;nica Vitta</text>
  <text x="870" y="666" fill="#B9C8DF" font-size="12" font-family="Manrope, Inter, Arial, sans-serif">16:10 Retomar Aurora Homes</text>
</svg>
