<svg width="900" height="560" viewBox="0 0 900 560" fill="none" xmlns="http://www.w3.org/2000/svg">
  <defs>
    <radialGradient id="bg" cx="0" cy="0" r="1" gradientUnits="userSpaceOnUse" gradientTransform="translate(237 54) rotate(35.4302) scale(811.953 729.468)">
      <stop stop-color="#102247"/>
      <stop offset="1" stop-color="#07101F"/>
    </radialGradient>
    <linearGradient id="bar" x1="104" y1="459" x2="652" y2="459" gradientUnits="userSpaceOnUse">
      <stop stop-color="#6CE7FF"/>
      <stop offset="1" stop-color="#8BFFBF"/>
    </linearGradient>
  </defs>

  <rect width="900" height="560" rx="32" fill="#07101F"/>
  <rect width="900" height="560" rx="32" fill="url(#bg)"/>
  <rect x="54" y="58" width="792" height="444" rx="30" fill="#09152C" stroke="#FFFFFF" stroke-opacity="0.08"/>

  <text x="86" y="102" fill="#8FA5C9" font-size="10" letter-spacing="0.22em" font-family="'IBM Plex Mono', monospace">PIPELINE INTELLIGENCE</text>
  <text x="86" y="134" fill="#FFFFFF" font-size="26" font-weight="700" font-family="Sora, Inter, Arial, sans-serif">Funil sincronizado com CRM e pr&#243;xima a&#231;&#227;o</text>
  <text x="86" y="158" fill="#B9C8DF" font-size="13" font-family="Manrope, Inter, Arial, sans-serif">Leads organizados, priorizados e distribu&#237;dos para o time entrar no momento certo.</text>

  <rect x="666" y="84" width="78" height="32" rx="16" fill="#10284B"/>
  <text x="705" y="100" fill="#6CE7FF" font-size="11" font-weight="700" font-family="Manrope, Inter, Arial, sans-serif" text-anchor="middle" dominant-baseline="middle">CRM sync</text>
  <rect x="754" y="84" width="64" height="32" rx="16" fill="#0F2144"/>
  <text x="786" y="100" fill="#8BFFBF" font-size="11" font-weight="700" font-family="Manrope, Inter, Arial, sans-serif" text-anchor="middle" dominant-baseline="middle">ao vivo</text>

  <rect x="86" y="184" width="168" height="246" rx="24" fill="#0B1730" stroke="#FFFFFF" stroke-opacity="0.06"/>
  <rect x="274" y="184" width="168" height="246" rx="24" fill="#0B1730" stroke="#FFFFFF" stroke-opacity="0.06"/>
  <rect x="462" y="184" width="168" height="246" rx="24" fill="#0B1730" stroke="#FFFFFF" stroke-opacity="0.06"/>
  <rect x="650" y="184" width="168" height="246" rx="24" fill="#0B1730" stroke="#FFFFFF" stroke-opacity="0.06"/>

  <text x="110" y="218" fill="#AFC0DA" font-size="12" font-weight="700" font-family="Manrope, Inter, Arial, sans-serif">NOVOS</text>
  <rect x="190" y="202" width="42" height="24" rx="12" fill="#10284B"/>
  <text x="211" y="214" fill="#6CE7FF" font-size="11" font-weight="700" font-family="Manrope, Inter, Arial, sans-serif" text-anchor="middle" dominant-baseline="middle">48</text>

  <text x="298" y="218" fill="#AFC0DA" font-size="12" font-weight="700" font-family="Manrope, Inter, Arial, sans-serif">QUALIFICADOS</text>
  <rect x="390" y="202" width="42" height="24" rx="12" fill="#10284B"/>
  <text x="411" y="214" fill="#6CE7FF" font-size="11" font-weight="700" font-family="Manrope, Inter, Arial, sans-serif" text-anchor="middle" dominant-baseline="middle">31</text>

  <text x="486" y="218" fill="#AFC0DA" font-size="12" font-weight="700" font-family="Manrope, Inter, Arial, sans-serif">PRONTOS PARA VENDEDOR</text>
  <rect x="586" y="202" width="42" height="24" rx="12" fill="#10284B"/>
  <text x="607" y="214" fill="#6CE7FF" font-size="11" font-weight="700" font-family="Manrope, Inter, Arial, sans-serif" text-anchor="middle" dominant-baseline="middle">19</text>

  <text x="674" y="218" fill="#AFC0DA" font-size="12" font-weight="700" font-family="Manrope, Inter, Arial, sans-serif">DEMO / FECHAMENTO</text>
  <rect x="766" y="202" width="42" height="24" rx="12" fill="#10284B"/>
  <text x="787" y="214" fill="#6CE7FF" font-size="11" font-weight="700" font-family="Manrope, Inter, Arial, sans-serif" text-anchor="middle" dominant-baseline="middle">12</text>

  <rect x="102" y="246" width="136" height="78" rx="20" fill="#10284B"/>
  <text x="120" y="272" fill="#FFFFFF" font-size="13" font-weight="700" font-family="Manrope, Inter, Arial, sans-serif">Aurora Homes</text>
  <text x="120" y="292" fill="#B9C8DF" font-size="11" font-family="Manrope, Inter, Arial, sans-serif">Instagram &#8226; 3 min</text>
  <text x="120" y="310" fill="#6CE7FF" font-size="11" font-weight="700" font-family="Manrope, Inter, Arial, sans-serif">Interesse em visita</text>

  <rect x="102" y="338" width="136" height="78" rx="20" fill="#10284B"/>
  <text x="120" y="364" fill="#FFFFFF" font-size="13" font-weight="700" font-family="Manrope, Inter, Arial, sans-serif">Nexa Motors</text>
  <text x="120" y="384" fill="#B9C8DF" font-size="11" font-family="Manrope, Inter, Arial, sans-serif">Site &#8226; agora</text>
  <text x="120" y="402" fill="#6CE7FF" font-size="11" font-weight="700" font-family="Manrope, Inter, Arial, sans-serif">Teste-drive</text>

  <rect x="290" y="258" width="136" height="86" rx="20" fill="#143257"/>
  <text x="308" y="284" fill="#FFFFFF" font-size="13" font-weight="700" font-family="Manrope, Inter, Arial, sans-serif">Cl&#237;nica Vitta</text>
  <text x="308" y="304" fill="#B9C8DF" font-size="11" font-family="Manrope, Inter, Arial, sans-serif">WhatsApp &#8226; score 92</text>
  <text x="308" y="322" fill="#8BFFBF" font-size="11" font-weight="700" font-family="Manrope, Inter, Arial, sans-serif">Procedimento premium</text>

  <rect x="478" y="244" width="136" height="100" rx="20" fill="#6CE7FF" fill-opacity="0.92"/>
  <text x="496" y="270" fill="#07111F" font-size="13" font-weight="800" font-family="Manrope, Inter, Arial, sans-serif">Lead priorizado</text>
  <text x="496" y="290" fill="#07111F" font-size="11" font-family="Manrope, Inter, Arial, sans-serif">Cl&#237;nica Vitta</text>
  <text x="496" y="308" fill="#07111F" font-size="11" font-family="Manrope, Inter, Arial, sans-serif">Hist&#243;rico + obje&#231;&#245;es</text>
  <text x="496" y="326" fill="#07111F" font-size="11" font-family="Manrope, Inter, Arial, sans-serif">Pr&#243;xima a&#231;&#227;o: demo</text>

  <rect x="478" y="356" width="136" height="54" rx="18" fill="#10284B"/>
  <text x="546" y="383" fill="#FFFFFF" font-size="12" font-weight="700" font-family="Manrope, Inter, Arial, sans-serif" text-anchor="middle" dominant-baseline="middle">Mais 18 leads em fila</text>

  <rect x="666" y="258" width="136" height="86" rx="20" fill="#8BFFBF" fill-opacity="0.92"/>
  <text x="684" y="284" fill="#081120" font-size="13" font-weight="800" font-family="Manrope, Inter, Arial, sans-serif">Demo agendada</text>
  <text x="684" y="304" fill="#081120" font-size="11" font-family="Manrope, Inter, Arial, sans-serif">Hoje &#8226; 15:30</text>
  <text x="684" y="322" fill="#081120" font-size="11" font-family="Manrope, Inter, Arial, sans-serif">Vendedor com contexto</text>

  <rect x="666" y="356" width="136" height="54" rx="18" fill="#10284B"/>
  <text x="734" y="383" fill="#FFFFFF" font-size="12" font-weight="700" font-family="Manrope, Inter, Arial, sans-serif" text-anchor="middle" dominant-baseline="middle">Proposta em andamento</text>

  <path d="M238 285H274" stroke="#6CE7FF" stroke-width="4" stroke-linecap="round"/>
  <path d="M426 301H462" stroke="#8BFFBF" stroke-width="4" stroke-linecap="round"/>
  <path d="M614 294H650" stroke="#6CE7FF" stroke-width="4" stroke-linecap="round"/>
  <circle cx="274" cy="285" r="7" fill="#6CE7FF"/>
  <circle cx="462" cy="301" r="7" fill="#8BFFBF"/>
  <circle cx="650" cy="294" r="7" fill="#6CE7FF"/>

  <rect x="86" y="448" width="732" height="32" rx="16" fill="#0B1730" stroke="#FFFFFF" stroke-opacity="0.05"/>
  <rect x="104" y="459" width="548" height="10" rx="5" fill="url(#bar)"/>
  <text x="668" y="464" fill="#B9C8DF" font-size="12" font-family="Manrope, Inter, Arial, sans-serif" dominant-baseline="middle">74% dos leads j&#225; entram com pr&#243;xima a&#231;&#227;o</text>

  <rect x="650" y="140" width="168" height="26" rx="13" fill="#0A162C"/>
  <text x="734" y="153" fill="#AFC0DA" font-size="11" font-weight="700" font-family="Manrope, Inter, Arial, sans-serif" text-anchor="middle" dominant-baseline="middle">CRM atualizado sem retrabalho</text>
</svg>
