<svg width="900" height="560" viewBox="0 0 900 560" fill="none" xmlns="http://www.w3.org/2000/svg">
  <defs>
    <radialGradient id="bg" cx="0" cy="0" r="1" gradientUnits="userSpaceOnUse" gradientTransform="translate(228 40) rotate(35.4) scale(804 712)">
      <stop stop-color="#102247"/>
      <stop offset="1" stop-color="#07101F"/>
    </radialGradient>
    <linearGradient id="aiBubble" x1="178" y1="278" x2="336" y2="398" gradientUnits="userSpaceOnUse">
      <stop stop-color="#6CE7FF"/>
      <stop offset="1" stop-color="#86F3BA"/>
    </linearGradient>
    <linearGradient id="connector" x1="0" y1="0" x2="0" y2="1">
      <stop stop-color="#6CE7FF"/>
      <stop offset="1" stop-color="#8BFFBF"/>
    </linearGradient>
  </defs>

  <rect width="900" height="560" rx="32" fill="#07101F"/>
  <rect width="900" height="560" rx="32" fill="url(#bg)"/>

  <rect x="58" y="42" width="302" height="476" rx="42" fill="#09152C" stroke="#FFFFFF" stroke-opacity="0.08"/>
  <rect x="82" y="68" width="254" height="424" rx="30" fill="#0B1730" stroke="#FFFFFF" stroke-opacity="0.04"/>
  <rect x="150" y="54" width="118" height="10" rx="5" fill="#FFFFFF" fill-opacity="0.08"/>

  <rect x="100" y="88" width="218" height="34" rx="17" fill="#101D38"/>
  <circle cx="118" cy="105" r="10" fill="#25D366"/>
  <path d="M118 98C114.6 98 111.8 100.8 111.8 104.2C111.8 105.4 112.2 106.6 112.8 107.6L111.8 111.2L115.5 110.2C116.4 110.8 117.5 111.1 118.7 111.1C122.1 111.1 124.9 108.4 124.9 105C124.9 101.6 122.1 98.8 118.7 98.8L118 98Z" fill="white" fill-opacity="0.98"/>
  <path d="M116.4 102.7C116.2 102.2 116 102.2 115.7 102.2C115.5 102.2 115.2 102.2 115 102.5C114.8 102.7 114.2 103.2 114.2 104.2C114.2 105.2 115 106.2 115.1 106.3C115.2 106.4 116.4 108.4 118.2 109.1C119.7 109.7 120 109.5 120.4 109.4C120.8 109.3 121.6 108.7 121.8 108.2C122 107.8 122 107.4 121.9 107.3C121.8 107.2 121.4 107.1 121 106.9C120.6 106.7 120.1 106.5 119.8 106.9C119.6 107.2 119.3 107.5 119.1 107.7C118.9 107.9 118.7 107.9 118.3 107.7C117.9 107.5 116.8 107.2 115.8 106C115 105.1 114.5 104.1 114.3 103.7C114.1 103.3 114.2 103.1 114.4 102.9C114.5 102.8 114.7 102.6 114.8 102.4C114.9 102.2 115 102.1 115.1 101.9C115.2 101.7 115.2 101.5 115.1 101.3C115 101.2 114.7 100.4 114.5 99.9C114.3 99.4 114.1 99.5 113.9 99.5H113.4C113.2 99.5 112.9 99.6 112.7 99.8C112.5 100 111.9 100.6 111.9 101.8C111.9 103 112.8 104.2 112.9 104.3C113 104.5 114.8 107.2 117.7 108.4C120.6 109.6 120.6 109.2 121.2 109.2C121.8 109.2 123.1 108.6 123.4 107.7C123.7 106.8 123.7 106.1 123.6 105.9C123.5 105.7 123.2 105.6 122.8 105.4C122.4 105.2 120.8 104.4 120.4 104.3C120 104.1 119.7 104.1 119.4 104.5C119.1 104.8 118.5 105.6 118.2 105.8C118 106 117.8 106 117.4 105.8C117 105.6 115.8 105.1 114.8 103.9C114 102.9 113.5 101.7 113.3 101.3C113.1 100.9 113.5 100.7 113.8 100.4C114 100.2 114.2 100 114.3 99.8C114.5 99.6 114.6 99.4 114.7 99.2C114.8 99 114.8 98.8 114.7 98.6C114.6 98.4 114.2 97.6 114 97.1C113.8 96.6 113.6 96.7 113.4 96.7H113C112.8 96.7 112.4 96.8 112.1 97.1C111.8 97.4 111.1 98.1 111.1 99.5C111.1 100.9 112.2 102.2 112.4 102.4C112.5 102.6 114.4 105.7 117.5 107C120.5 108.3 120.5 107.9 121.2 107.9C121.9 107.9 123.6 107.2 124 106C124.4 104.8 124.4 103.8 124.3 103.6C124.2 103.4 123.8 103.2 123.4 103Z" fill="#25D366"/>
  <text x="136" y="106" fill="#A7B8D4" font-size="11" font-family="Manrope, Inter, Arial, sans-serif" dominant-baseline="middle">Integração via WhatsApp Business API</text>

  <rect x="100" y="136" width="218" height="56" rx="22" fill="#10284B"/>
  <circle cx="128" cy="164" r="16" fill="#6CE7FF" fill-opacity="0.18"/>
  <circle cx="128" cy="164" r="8" fill="#6CE7FF"/>
  <text x="154" y="158" fill="#FFFFFF" font-size="15" font-weight="700" font-family="Sora, Inter, Arial, sans-serif">AnySale IA</text>
  <text x="154" y="176" fill="#8FEFFF" font-size="12" font-weight="600" font-family="Manrope, Inter, Arial, sans-serif">online</text>

  <rect x="104" y="214" width="184" height="58" rx="20" fill="#202A44"/>
  <text x="122" y="238" fill="#FFFFFF" font-size="13" font-weight="600" font-family="Manrope, Inter, Arial, sans-serif">Ol&#225;, quero automatizar</text>
  <text x="122" y="256" fill="#FFFFFF" font-size="13" font-weight="600" font-family="Manrope, Inter, Arial, sans-serif">meu atendimento.</text>

  <rect x="154" y="290" width="164" height="58" rx="20" fill="url(#aiBubble)"/>
  <text x="172" y="314" fill="#07101F" font-size="13" font-weight="700" font-family="Manrope, Inter, Arial, sans-serif">Perfeito! Vou entender</text>
  <text x="172" y="332" fill="#07101F" font-size="13" font-weight="700" font-family="Manrope, Inter, Arial, sans-serif">sua opera&#231;&#227;o rapidamente.</text>

  <rect x="104" y="366" width="192" height="58" rx="20" fill="#202A44"/>
  <text x="122" y="390" fill="#FFFFFF" font-size="13" font-weight="600" font-family="Manrope, Inter, Arial, sans-serif">Recebo muitos leads</text>
  <text x="122" y="408" fill="#FFFFFF" font-size="13" font-weight="600" font-family="Manrope, Inter, Arial, sans-serif">no WhatsApp.</text>

  <rect x="154" y="442" width="164" height="72" rx="22" fill="url(#aiBubble)"/>
  <text x="172" y="466" fill="#07101F" font-size="13" font-weight="700" font-family="Manrope, Inter, Arial, sans-serif">Lead classificado como</text>
  <text x="172" y="484" fill="#07101F" font-size="13" font-weight="700" font-family="Manrope, Inter, Arial, sans-serif">alta prioridade.</text>
  <text x="172" y="502" fill="#07101F" font-size="13" font-weight="700" font-family="Manrope, Inter, Arial, sans-serif">Encaminhando para o</text>
  <text x="172" y="520" fill="#07101F" font-size="13" font-weight="700" font-family="Manrope, Inter, Arial, sans-serif">vendedor com contexto.</text>

  <text x="430" y="110" fill="#FFFFFF" font-size="28" font-weight="700" font-family="Sora, Inter, Arial, sans-serif">WhatsApp + IA Comercial</text>
  <text x="430" y="140" fill="#B9C8DF" font-size="14" font-family="Manrope, Inter, Arial, sans-serif">O AnySale transforma conversas em oportunidades</text>
  <text x="430" y="160" fill="#B9C8DF" font-size="14" font-family="Manrope, Inter, Arial, sans-serif">qualificadas automaticamente.</text>

  <path d="M448 206V454" stroke="url(#connector)" stroke-width="3" stroke-linecap="round" stroke-opacity="0.9"/>
  <circle cx="448" cy="228" r="10" fill="#10284B"/>
  <circle cx="448" cy="310" r="10" fill="#10284B"/>
  <circle cx="448" cy="392" r="10" fill="#10284B"/>
  <circle cx="448" cy="474" r="10" fill="#10284B"/>
  <circle cx="448" cy="228" r="4" fill="#6CE7FF"/>
  <circle cx="448" cy="310" r="4" fill="#8BFFBF"/>
  <circle cx="448" cy="392" r="4" fill="#6CE7FF"/>
  <circle cx="448" cy="474" r="4" fill="#8BFFBF"/>

  <rect x="478" y="194" width="308" height="64" rx="22" fill="#0B1730" stroke="#FFFFFF" stroke-opacity="0.06"/>
  <text x="504" y="220" fill="#8FA5C9" font-size="10" letter-spacing="0.18em" font-family="'IBM Plex Mono', monospace">MENSAGEM RECEBIDA</text>
  <text x="504" y="244" fill="#FFFFFF" font-size="17" font-weight="700" font-family="Manrope, Inter, Arial, sans-serif">Canal: WhatsApp</text>

  <rect x="478" y="276" width="308" height="74" rx="22" fill="#0B1730" stroke="#FFFFFF" stroke-opacity="0.06"/>
  <text x="504" y="302" fill="#8FA5C9" font-size="10" letter-spacing="0.18em" font-family="'IBM Plex Mono', monospace">IA ANALISA</text>
  <text x="504" y="326" fill="#FFFFFF" font-size="17" font-weight="700" font-family="Manrope, Inter, Arial, sans-serif">Inten&#231;&#227;o: compra</text>
  <text x="504" y="346" fill="#8BFFBF" font-size="15" font-weight="700" font-family="Manrope, Inter, Arial, sans-serif">Urg&#234;ncia: alta</text>

  <rect x="478" y="358" width="308" height="64" rx="22" fill="#0B1730" stroke="#FFFFFF" stroke-opacity="0.06"/>
  <text x="504" y="384" fill="#8FA5C9" font-size="10" letter-spacing="0.18em" font-family="'IBM Plex Mono', monospace">LEAD QUALIFICADO</text>
  <text x="504" y="408" fill="#FFFFFF" font-size="17" font-weight="700" font-family="Manrope, Inter, Arial, sans-serif">Score: 92/100</text>

  <rect x="478" y="440" width="308" height="72" rx="22" fill="#0B1730" stroke="#FFFFFF" stroke-opacity="0.06"/>
  <text x="504" y="466" fill="#8FA5C9" font-size="10" letter-spacing="0.18em" font-family="'IBM Plex Mono', monospace">HANDOFF PARA VENDEDOR</text>
  <text x="504" y="490" fill="#FFFFFF" font-size="17" font-weight="700" font-family="Manrope, Inter, Arial, sans-serif">Pr&#243;xima a&#231;&#227;o: contato imediato</text>
</svg>
