<svg width="1200" height="630" viewBox="0 0 1200 630" fill="none" xmlns="http://www.w3.org/2000/svg">
  <rect width="1200" height="630" rx="36" fill="#040816"/>
  <rect width="1200" height="630" rx="36" fill="url(#paint0_radial)"/>
  <g opacity="0.8">
    <rect x="64" y="66" width="1072" height="498" rx="32" fill="url(#paint1_linear)" stroke="#FFFFFF" stroke-opacity="0.12"/>
    <rect x="96" y="116" width="470" height="42" rx="21" fill="#6CE7FF" fill-opacity="0.12" stroke="#6CE7FF" stroke-opacity="0.32"/>
    <text x="128" y="144" fill="#D7F6FF" font-size="18" font-family="Arial, sans-serif" letter-spacing="6">AI SALES ENGINE</text>
    <text x="96" y="255" fill="white" font-size="68" font-family="Arial, sans-serif" font-weight="700">AnySale</text>
    <text x="96" y="332" fill="#C8D3F5" font-size="34" font-family="Arial, sans-serif">IA para vendas no WhatsApp e Instagram</text>
    <text x="96" y="392" fill="#8EA1CD" font-size="26" font-family="Arial, sans-serif">Atendimento instantâneo, qualificação automática e follow-up 24h.</text>
    <rect x="750" y="146" width="288" height="274" rx="28" fill="#091126" stroke="#FFFFFF" stroke-opacity="0.1"/>
    <rect x="780" y="182" width="228" height="28" rx="14" fill="#FFFFFF" fill-opacity="0.08"/>
    <rect x="780" y="236" width="168" height="24" rx="12" fill="#6CE7FF" fill-opacity="0.86"/>
    <rect x="780" y="280" width="218" height="24" rx="12" fill="#FFFFFF" fill-opacity="0.1"/>
    <rect x="780" y="324" width="196" height="24" rx="12" fill="#8BFFBF" fill-opacity="0.82"/>
    <rect x="780" y="378" width="64" height="12" rx="6" fill="#FFFFFF" fill-opacity="0.14"/>
    <rect x="856" y="356" width="34" height="34" rx="10" fill="#6CE7FF" fill-opacity="0.2"/>
    <rect x="900" y="332" width="34" height="58" rx="10" fill="#6CE7FF" fill-opacity="0.42"/>
    <rect x="944" y="306" width="34" height="84" rx="10" fill="#6CE7FF" fill-opacity="0.72"/>
  </g>
  <defs>
    <radialGradient id="paint0_radial" cx="0" cy="0" r="1" gradientUnits="userSpaceOnUse" gradientTransform="translate(327 79) rotate(35.6196) scale(933.861 892.091)">
      <stop stop-color="#0E1B3A"/>
      <stop offset="1" stop-color="#040816"/>
    </radialGradient>
    <linearGradient id="paint1_linear" x1="151" y1="111" x2="1050" y2="556" gradientUnits="userSpaceOnUse">
      <stop stop-color="rgba(11,20,44,0.98)"/>
      <stop offset="1" stop-color="rgba(5,10,22,0.92)"/>
    </linearGradient>
  </defs>
</svg>
