<svg width="720" height="420" viewBox="0 0 720 420" fill="none" xmlns="http://www.w3.org/2000/svg">
  <rect width="720" height="420" rx="28" fill="#081224"/>
  <rect width="720" height="420" rx="28" fill="url(#bg)"/>
  <rect x="88" y="90" width="214" height="16" rx="8" fill="#FFFFFF" fill-opacity="0.14"/>
  <rect x="88" y="118" width="154" height="12" rx="6" fill="#FFFFFF" fill-opacity="0.08"/>
  <rect x="140" y="176" width="160" height="140" rx="26" fill="#0F2144"/>
  <rect x="356" y="140" width="224" height="176" rx="26" fill="#16345F"/>
  <path d="M300 246H356" stroke="#6CE7FF" stroke-width="6" stroke-linecap="round"/>
  <circle cx="300" cy="246" r="10" fill="#6CE7FF"/>
  <circle cx="356" cy="246" r="10" fill="#8BFFBF"/>
  <rect x="176" y="214" width="88" height="16" rx="8" fill="#FFFFFF" fill-opacity="0.82"/>
  <rect x="176" y="242" width="64" height="12" rx="6" fill="#FFFFFF" fill-opacity="0.18"/>
  <rect x="394" y="192" width="108" height="16" rx="8" fill="#FFFFFF" fill-opacity="0.82"/>
  <rect x="394" y="220" width="128" height="12" rx="6" fill="#FFFFFF" fill-opacity="0.18"/>
  <defs>
    <radialGradient id="bg" cx="0" cy="0" r="1" gradientUnits="userSpaceOnUse" gradientTransform="translate(190 22) rotate(35.8855) scale(616.755 538.341)">
      <stop stop-color="#102247"/>
      <stop offset="1" stop-color="#081224"/>
    </radialGradient>
  </defs>
</svg>
